<svg xmlns="http://www.w3.org/2000/svg" viewBox="0 0 16 16" width="50" height="50">
  <path fill="#212121" d="M0 14.79v-.84a2 2 0 0 0 2.03.27.56.56 0 0 0 .25-.5.54.54 0 0 0-.08-.3 1.44 1.44 0 0 0-.59-.44 6.37 6.37 0 0 1-.9-.47 1.51 1.51 0 0 1-.62-.68 1.28 1.28 0 0 1 .06-1.08A1.88 1.88 0 0 1 1.81 10a2.66 2.66 0 0 1 1.12.17v.8a1.79 1.79 0 0 0-1.07-.3 1.1 1.1 0 0 0-.92.35.5.5 0 0 0-.09.3.59.59 0 0 0 .27.5 4.15 4.15 0 0 0 .76.4c.66.35 1.26.76 1.26 1.5 0 .98-.86 1.35-1.84 1.35a3.24 3.24 0 0 1-1.3-.28Zm6.06.28a2.28 2.28 0 0 1-2.34-2.48A2.35 2.35 0 0 1 6.14 10a2.27 2.27 0 0 1 2.3 2.47 2.55 2.55 0 0 1-.93 2.15l1.42 1.02H7.69l-.88-.68a2.83 2.83 0 0 1-.75.1Zm.04-4.36a1.39 1.39 0 0 0-1.1.5 2.01 2.01 0 0 0-.42 1.33 2.04 2.04 0 0 0 .41 1.31 1.35 1.35 0 0 0 1.07.5c1.02 0 1.52-.77 1.52-1.8s-.46-1.84-1.48-1.84Zm5.95 4.27H9.33v-4.9h.81v4.22h1.9Z"/>
  <path fill="#0077a0" d="M4.5 9V3c0-.83 1.8-1.5 4-1.5s4 .67 4 1.5v8c0 .47-.6.89-1.5 1.16V9Z" opacity=".1"/>
  <path fill="#0077a0" d="M5 9V4.3a7.9 7.9 0 0 0 3.5.7 7.91 7.91 0 0 0 3.5-.7V11c0 .15-.35.42-1 .64v1.04c1.16-.32 2-.88 2-1.68V2.97c0-2.63-9-2.63-9 0V9Zm0-6.02C5 2.7 6.23 2 8.5 2s3.5.7 3.5.98v.03c0 .29-1.23.99-3.5.99S5 3.3 5 3.02Z"/>
</svg>